<?xml version="1.0" encoding="UTF-8" standalone="no"?>
<!-- Created with Inkscape (http://www.inkscape.org/) -->

<svg
   width="400px"
   height="180px"
   viewBox="0 0 400 180"
   version="1.1"
   id="SVGRoot"
   sodipodi:docname="MTJ_logo.svg"
   inkscape:version="1.2.1 (9c6d41e, 2022-07-14)"
   xmlns:inkscape="http://www.inkscape.org/namespaces/inkscape"
   xmlns:sodipodi="http://sodipodi.sourceforge.net/DTD/sodipodi-0.dtd"
   xmlns="http://www.w3.org/2000/svg"
   xmlns:svg="http://www.w3.org/2000/svg">
  <sodipodi:namedview
     id="namedview745"
     pagecolor="#ffffff"
     bordercolor="#000000"
     borderopacity="0.25"
     inkscape:showpageshadow="2"
     inkscape:pageopacity="0.0"
     inkscape:pagecheckerboard="0"
     inkscape:deskcolor="#d1d1d1"
     inkscape:document-units="px"
     showgrid="false"
     inkscape:zoom="2.3447635"
     inkscape:cx="208.9763"
     inkscape:cy="90.840717"
     inkscape:window-width="1462"
     inkscape:window-height="916"
     inkscape:window-x="0"
     inkscape:window-y="38"
     inkscape:window-maximized="1"
     inkscape:current-layer="layer1" />
  <defs
     id="defs740" />
  <g
     inkscape:label="Capa 1"
     inkscape:groupmode="layer"
     id="layer1">
    <ellipse
       style="fill:#000000"
       id="path188"
       cx="59.450485"
       cy="107.48444"
       rx="12.880359"
       ry="13.524377" />
    <ellipse
       style="fill:#000000;stroke-width:0.970642"
       id="path188-0"
       cx="336.16406"
       cy="96.81411"
       rx="12.880359"
       ry="12.741932" />
    <path
       style="fill:#000000"
       d="m 45.918491,37.953377 c 0,0 55.002229,42.80485 55.063549,69.553923 0.0646,28.18364 -55.707559,72.77403 -55.707559,72.77403 0,0 31.127527,-47.01331 31.234867,-72.13001 C 76.616678,83.034627 45.918491,37.953377 45.918491,37.953377 Z"
       id="path319"
       sodipodi:nodetypes="sssss" />
    <path
       style="fill:#000000"
       d="m 187.11946,34.411277 c 0,0 -55.00221,42.80486 -55.06353,69.553933 -0.0646,28.18364 55.70754,72.77404 55.70754,72.77404 0,0 -31.12753,-47.01332 -31.23487,-72.13002 -0.10733,-25.116693 30.59086,-70.197953 30.59086,-70.197953 z"
       id="path319-0"
       sodipodi:nodetypes="sssss" />
    <path
       style="fill:#000000"
       d="m 64.595016,41.173467 50.877424,59.893663 46.36929,-62.469733 -45.08126,40.57313 z"
       id="path511" />
    <path
       style="fill:#000000;stroke-width:0.9588"
       d="M 18.754488,68.222217 2.769295,83.034637 5.729516,62.426057 24.082885,2.5323893 209.98476,1.8883713 209.39272,177.06125 l -10.06476,-11.59233 3.55227,-5.79616 -1.18409,-144.260013 -167.548504,1.28804 z"
       id="path513" />
    <path
       style="fill:#000000;stroke-width:0.906213"
       d="m 379.5087,68.222227 14.2798,14.81242 -2.64441,-20.60858 -16.39533,-59.8936757 -166.06878,-0.64401 0.52887,175.1728687 8.991,-11.59232 -3.1733,-5.79616 1.05777,-144.260023 149.67346,1.28804 z"
       id="path513-8" />
    <path
       style="fill:#000000;stroke-width:0.886618"
       d="m 332.47064,36.534267 c 0,0 -17.50991,38.65003 -16.60901,59.40579 0.89578,20.637703 22.90896,65.346353 22.90896,65.346353 0,0 -47.61787,-40.34332 -48.40415,-63.726213 -0.77087,-22.92498 42.1042,-61.02593 42.1042,-61.02593 z"
       id="path567"
       sodipodi:nodetypes="cscsc" />
    <path
       style="fill:#000000;stroke-width:0.71365"
       d="m 260.68641,56.826207 -18.45394,-19.77164 h 85.08365 c -14.38284,2.92805 -19.86042,4.89365 -58.15656,10.40614 z"
       id="path569"
       sodipodi:nodetypes="ccccc" />
    <path
       style="fill:#000000;stroke-width:0.77499"
       d="m 335.25533,162.7445 -46.75019,16.19609 c -0.1667,1.68996 -29.77178,-16.82273 -51.24664,-28.01506 l 9.224,-25.07209 3.67698,22.94444 38.87094,19.79522 z"
       id="path573"
       sodipodi:nodetypes="ccccccc" />
  </g>
</svg>
